<?xml version="1.0" encoding="utf-8"?><svg width="174" height="104" viewBox="0 0 174 104" xmlns="http://www.w3.org/2000/svg" xmlns:xlink="http://www.w3.org/1999/xlink"><view id="breadcrumb--after-icon" viewBox="104 0 32 38"/><svg width="32" height="38" fill="none" viewBox="-10 -10 32 38" x="104" xmlns="http://www.w3.org/2000/svg"><path d="M10.625 1.125c.344.188.469.656.25 1.031l-8.5 14.5c-.188.344-.656.469-1.031.25a.753.753 0 0 1-.25-1.031l8.5-14.5a.753.753 0 0 1 1.031-.25Z" fill="#A5B1C0"/></svg><view id="footnote-arrow" viewBox="136 38 36 30"/><svg width="36" height="30" fill="none" viewBox="-10 -10 36 30" x="136" y="38" xmlns="http://www.w3.org/2000/svg"><path d="M7.378 9.735.258 2.4a.925.925 0 0 1 0-1.28l.83-.856A.861.861 0 0 1 2.33.264L8 6.076 13.67.264a.861.861 0 0 1 1.242.001l.83.856a.925.925 0 0 1 0 1.28l-7.12 7.334a.862.862 0 0 1-1.244 0Z" fill="#15191E"/></svg><view id="hamburger" viewBox="0 0 52 52"/><svg width="52" height="52" fill="none" viewBox="-15.62 -15.62 81.25 81.25" xmlns="http://www.w3.org/2000/svg"><rect x="46" y="16.065" width="36" height="4.13" rx="2.065" transform="rotate(-180 46 16.065)" fill="#fff"/><rect x="46" y="30.065" width="36" height="4.13" rx="2.065" transform="rotate(-180 46 30.065)" fill="#fff"/><rect x="46" y="44.065" width="36" height="4.13" rx="2.065" transform="rotate(-180 46 44.065)" fill="#fff"/></svg><view id="icon-arrow" viewBox="136 0 38 38"/><svg width="38" height="38" fill="none" viewBox="-10 -10 38 38" x="136" xmlns="http://www.w3.org/2000/svg"><path d="m3 6.75 6 6 6-6" stroke="#fff" stroke-width="2" stroke-linecap="square"/></svg><view id="language-switcher" viewBox="52 52 44 42"/><svg width="44" height="42" fill="none" viewBox="-10 -10 44 42" x="52" y="52" xmlns="http://www.w3.org/2000/svg"><path d="m12.95 14.258-2.772-2.738.033-.033a19.112 19.112 0 0 0 4.047-7.123h3.197V2.182H9.817V0H7.636v2.182H0v2.17h12.185A17.142 17.142 0 0 1 8.727 10.2a17.068 17.068 0 0 1-2.52-3.655H4.025a19.16 19.16 0 0 0 3.251 4.975l-5.552 5.476 1.549 1.55 5.454-5.455 3.393 3.393.83-2.226Zm6.14-5.53h-2.18L12 21.817h2.182l1.222-3.273h5.181l1.233 3.273H24l-4.91-13.09Zm-2.857 7.636L18 11.64l1.767 4.724h-3.534Z" fill="#fff"/></svg><view id="quote-icon" viewBox="52 0 52 52"/><svg width="52" height="52" fill="none" viewBox="-38.75 -38.75 201.5 201.5" x="52" xmlns="http://www.w3.org/2000/svg"><path d="M67.164 101.68V61.049L91.352 22.32h20.927L93.662 58.603h18.617v43.077H67.164Zm-54.764 0V61.049L36.18 22.32h21.471L38.627 58.603H57.65v43.077H12.4Z" fill="#D1D8FA"/></svg><view id="search-icon-menu" viewBox="0 52 52 52"/><svg width="52" height="52" fill="none" viewBox="-15 -15 78 78" y="52" xmlns="http://www.w3.org/2000/svg"><g fill="#fff"><path d="m42.165 36.916.004.004c.233.215.543.333.862.33.319-.003.626-.127.854-.347.23-.22.361-.521.365-.837.004-.316-.121-.62-.344-.845l-.005-.004-3.506-3.387a8.536 8.536 0 0 0 1.848-5.29c0-4.838-4.079-8.763-9.066-8.763-4.987 0-9.064 3.925-9.064 8.763 0 4.837 4.077 8.77 9.064 8.77 2.053 0 3.949-.67 5.47-1.79l3.518 3.396ZM33.177 20.17c3.669 0 6.605 2.848 6.605 6.371 0 3.523-2.937 6.378-6.605 6.378-3.668 0-6.604-2.855-6.604-6.378s2.936-6.37 6.604-6.37Z" stroke="#fff" stroke-width=".5"/><path fill-rule="evenodd" clip-rule="evenodd" d="M32.582 13.902a1.45 1.45 0 0 0 0-2.902H5.451a1.45 1.45 0 1 0 0 2.902h27.131ZM22.59 33.669a12.816 12.816 0 0 0 2.478 2.902H5.451a1.45 1.45 0 1 1 0-2.902H22.59Zm-1.712-8.433c.16-1.012.444-1.984.837-2.902H5.45a1.45 1.45 0 0 0 0 2.902h15.427Z"/></g></svg></svg>